<svg width="14" height="14" viewBox="0 0 14 14" fill="none" xmlns="http://www.w3.org/2000/svg">
<path d="M13.627 9.89746C13.627 10.1846 13.5303 10.4248 13.3369 10.6182C13.1436 10.8115 12.918 10.9082 12.6602 10.9082C12.3965 10.9082 12.1738 10.8115 11.9922 10.6182C11.8105 10.4189 11.7197 10.1875 11.7197 9.92383V6.63672L11.8604 3.01562L10.4365 4.61523L2.06055 12.9912C1.85547 13.1904 1.62402 13.29 1.36621 13.29C1.19043 13.29 1.02637 13.2432 0.874023 13.1494C0.727539 13.0615 0.607422 12.9414 0.513672 12.7891C0.419922 12.6367 0.373047 12.4756 0.373047 12.3057C0.373047 12.0537 0.478516 11.8223 0.689453 11.6113L9.04785 3.22656L10.6475 1.82031L6.86816 1.95215H3.73926C3.47559 1.95215 3.24707 1.86133 3.05371 1.67969C2.86035 1.49219 2.76367 1.26953 2.76367 1.01172C2.76367 0.753906 2.85742 0.52832 3.04492 0.334961C3.23242 0.141602 3.47266 0.0449219 3.76562 0.0449219H12.5898C12.9062 0.0449219 13.1553 0.141602 13.3369 0.334961C13.5244 0.522461 13.6182 0.768555 13.6182 1.07324L13.627 9.89746Z" fill="black"/>
</svg>
